<svg width="139" height="212" viewBox="0 0 139 212" fill="none" xmlns="http://www.w3.org/2000/svg">
<path d="M38.7303 212C57.1623 211.136 70.6983 204.224 80.7783 192.992C90.2823 181.76 96.0423 168.224 99.4983 152.096C104.106 131.36 102.378 108.608 88.8423 100.256C97.7703 93.632 103.53 87.872 108.138 80.96C112.746 74.048 115.338 66.56 117.354 56.48C121.962 35.456 120.234 21.632 112.458 12.704C104.682 3.77599 91.1463 0.319996 72.7143 0.319996H45.3543L0.426251 212H38.7303ZM69.8343 31.136C71.2743 31.136 73.2903 31.136 75.8823 31.424C81.0663 31.712 85.6743 34.88 87.6903 42.656C88.5543 46.4 88.2663 52.16 86.8263 59.36C83.6583 74.048 78.1863 80.96 72.4263 84.416C66.3783 87.872 60.3303 87.584 57.7383 87.584L69.8343 31.136ZM51.6903 116.096H57.7383C63.2103 116.384 67.8183 119.84 69.5463 128.768C70.4103 133.376 69.8343 140 67.8183 148.64C64.3623 165.92 58.3143 174.272 52.5543 178.016C46.5063 181.76 40.4583 181.184 37.8663 181.184L51.6903 116.096ZM101.301 212H131.541L138.165 180.032H107.925L101.301 212Z" fill="#D44502"/>
</svg>
