<svg width="26" height="27" viewBox="0 0 26 27" fill="none" xmlns="http://www.w3.org/2000/svg">
<path d="M25 22.8984V13.5072C25.0001 12.8538 24.8667 12.2073 24.6082 11.6073C24.3497 11.0073 23.9713 10.4663 23.4964 10.0176L14.6488 1.65602C14.2032 1.23474 13.6132 1 13 1C12.3868 1 11.7968 1.23474 11.3512 1.65602L2.5036 10.0176C2.02867 10.4663 1.65034 11.0073 1.3918 11.6073C1.13325 12.2073 0.999931 12.8538 1 13.5072V22.8984C1 23.5349 1.25286 24.1454 1.70294 24.5955C2.15303 25.0456 2.76348 25.2984 3.4 25.2984H22.6C23.2365 25.2984 23.847 25.0456 24.2971 24.5955C24.7471 24.1454 25 23.5349 25 22.8984Z" stroke="black" stroke-width="2" stroke-linecap="round" stroke-linejoin="round"/>
</svg>
